<svg xmlns="http://www.w3.org/2000/svg" xmlns:xlink="http://www.w3.org/1999/xlink" viewBox="0 0 330.8 105.13"><defs><style>.cls-1{fill:url(#Nouvelle_nuance_de_dégradé_1);}.cls-2{fill:#b0b0b0;}.cls-3{fill:#253b56;}</style><linearGradient id="Nouvelle_nuance_de_dégradé_1" x1="243.15" y1="-21.07" x2="343.82" y2="-21.07" gradientTransform="translate(-12.59 78.81) rotate(-1.1)" gradientUnits="userSpaceOnUse"><stop offset="0" stop-color="#2c2e74"/><stop offset="0.42" stop-color="#554c9a"/><stop offset="1" stop-color="#e51c6f"/></linearGradient></defs><g id="hd16012_DLP_30_dark_blue" data-name="hd16012 DLP 30 dark blue"><path class="cls-1" d="M330,46.93a26.06,26.06,0,0,0-8.79-13.64,19.53,19.53,0,0,0-7.48-3.63,16.62,16.62,0,0,0-8.29.15,18.37,18.37,0,0,0-7.27,3.79,18.75,18.75,0,0,0-4.86,6.47,20.84,20.84,0,0,0-1.66,11.17,32.06,32.06,0,0,0-6.54-6.87,34.8,34.8,0,0,0-7.74-4.7,34.14,34.14,0,0,0-4.25-1.52,33.25,33.25,0,0,0-4.39-1,34.47,34.47,0,0,0-12.57.37,26.36,26.36,0,0,0,4.57-2.5,26.23,26.23,0,0,0,4-3.43,24.08,24.08,0,0,0,1.72-2,18.14,18.14,0,0,0,1.44-2.34,19.28,19.28,0,0,0,1.85-10.66,17.46,17.46,0,0,0-1.55-5.33,18.89,18.89,0,0,0-3.12-4.59A21.56,21.56,0,0,0,255.76,1,24,24,0,0,0,245.09.31a19.92,19.92,0,0,0-9.74,4.15,19.09,19.09,0,0,0-6,8.39,21.11,21.11,0,0,1,6.87-7.21,19.54,19.54,0,0,1,9.17-3,23.27,23.27,0,0,1,9.54,1.09,19.16,19.16,0,0,1,8,5,16.24,16.24,0,0,1,2.67,3.81,15.67,15.67,0,0,1,1.37,4.42,17.89,17.89,0,0,1-1.16,9.31,14.33,14.33,0,0,1-1.1,2.09c-.44.69-.93,1.34-1.43,2a25.07,25.07,0,0,1-3.43,3.56,28.33,28.33,0,0,1-8.32,5l-.33.11.14,0-.14.06a23.09,23.09,0,0,0,2.36-.54,36.17,36.17,0,0,1,14.91.15,34.84,34.84,0,0,1,15.17,7.59,32.67,32.67,0,0,1,9.54,13.77,15.65,15.65,0,0,1,.64,2c.18.68.41,1.35.56,2L294.7,66c.05.35.14.69.17,1l.08,1c0,.7.11,1.4.14,2.1l-.06,2.1c0,.35,0,.71,0,1l-.13,1.05c-.1.69-.16,1.39-.29,2.08a32.81,32.81,0,0,1-20.94,24.61,34.68,34.68,0,0,1-16.85,1.9,36.22,36.22,0,0,1-16.09-6.29,34.2,34.2,0,0,0,15.85,7.74,34.93,34.93,0,0,0,17.87-1.16,34.39,34.39,0,0,0,23.09-26.26c.14-.76.2-1.53.3-2.29l.14-1.14c0-.38,0-.77,0-1.15l0-2.3c0-.77-.12-1.53-.17-2.3l-.1-1.15a5.35,5.35,0,0,0-.11-.68,22.3,22.3,0,0,0,2.94,2.89,20.57,20.57,0,0,0,7.13,3.78,17.79,17.79,0,0,0,8.21.43,16.72,16.72,0,0,0,7.55-3.46,19.28,19.28,0,0,0,5.16-6.53A23.66,23.66,0,0,0,330,46.93Zm-3.89,15a16.5,16.5,0,0,1-4.26,5.73,15.3,15.3,0,0,1-6.37,3.2,17.58,17.58,0,0,1-14-3.1,21.9,21.9,0,0,1-4.21-3.84l-.11-.59c-.18-.75-.42-1.47-.63-2.21a15,15,0,0,0-.74-2.17A35.58,35.58,0,0,0,292.13,52a21,21,0,0,1,2.44-11.28A17.1,17.1,0,0,1,306,32.06a15.16,15.16,0,0,1,7.12.13,16.86,16.86,0,0,1,6.35,3.3,23.49,23.49,0,0,1,7.66,12.22A20.94,20.94,0,0,1,326.07,61.93Z"/><path class="cls-2" d="M237,63.89a.54.54,0,0,1,.52.29.57.57,0,0,1,.07.3,1,1,0,0,1,0,.17.57.57,0,0,1-.27.35l-.2.07a.45.45,0,0,1,.23.2l.34.5.14.21-.2.14-.13-.2-.31-.46-.12-.17a.35.35,0,0,0-.09-.1c-.07-.06-.16-.07-.34-.06v.94h-.24V63.89Zm-.38,1h.3a.47.47,0,0,0,.3-.1.51.51,0,0,0,.1-.51.35.35,0,0,0-.24-.22.73.73,0,0,0-.22,0l-.24,0Z"/><path class="cls-2" d="M236.92,66.82a1.86,1.86,0,0,0,1.3-.53,1.84,1.84,0,0,0-1.3-3.14A1.84,1.84,0,0,0,235.08,65a1.82,1.82,0,0,0,.54,1.3A1.86,1.86,0,0,0,236.92,66.82ZM235.22,65a1.72,1.72,0,0,1,.5-1.21,1.71,1.71,0,0,1,2.4,0,1.7,1.7,0,0,1-1.2,2.9,1.69,1.69,0,0,1-1.7-1.69Z"/><path class="cls-3" d="M211.05,59c-.36,7.58-3.7,8.56-4.4,8.76-1.74.49-2.94-.66-4.06-2.48s-3.73-9.72-4.5-9.71c-1.18,0-2.76,9.84-2.79,10.61s-.33,2-1.51,1.92a2.08,2.08,0,0,1-2-2c.11-6.3,2.87-14.85,3.24-16.06a4.11,4.11,0,0,1,2.77-2.15c2.36-.59,7,12.15,8.25,12.18.42,0,.31,0,.4-.88a43.62,43.62,0,0,0-.37-8.61c-.38-2.57-1-4.52-.95-5,.18-1,1.53-.64,2.42.37C208.21,46.74,211.43,50.72,211.05,59Z"/><path class="cls-3" d="M189,67c-1.94,2.17-2.81,2-4,1.5-1-.4-.19-5.47-.57-8.08-2.9.39-6.95,1.15-8.5,1.13-.33,0-.68,1.57-.67,2.89,0,2,.3,4.21-.59,4.29-2.06.18-3.54-2.22-3.64-3.93s.61-3.85.37-4.17-.31-.18-.51-.63c-.53-1.17-1-4.11-.8-4.2a1.41,1.41,0,0,1,.58-.08c.59.05,1.61,1.44,1.93.75a28.29,28.29,0,0,1,4.31-10c1-1.41,5.2-3.08,6.41-1.67,3.86,2.31,6.07,9.3,6.39,11.49S191,64.86,189,67Zm-4.85-10.39c-.54-2.24-1.64-8.84-4-8-1.94.68-3.4,5.48-3.67,8.42C179.06,57.38,181.87,56.77,184.18,56.61Z"/><path class="cls-3" d="M167.28,68c-1.33.77-3.76,2.68-8.61.68-2.42-1-3.69-4.1-2.31-8.2.61-1.81,3.47-9.47,4-11.87.58-2.87-.42-4.09-.24-4.41.78-1.42,3.74,2.49,3.91,4.29.49,5.19-2.47,12-2.81,13.78-.47,2.52,2,1.63,3.13,1.42s3.8-1.5,4.91-.81S169.48,66.75,167.28,68Z"/><path class="cls-3" d="M147.62,66.47c-2.35,1.28-4.82,1.11-4.92,1.46-3.33,12.34-2.31,18.45-2.87,18.8-1.14.71-4.46-1.65-4.54-2.57-.53-6.61,1.61-14.25,2.67-18a8.23,8.23,0,0,1-2.62-3.14,10.13,10.13,0,0,1-.46-6.46c.72-3.16,7.1-11.39,8.24-11.56.9-.13.75,1.78.31,2.93-.68,1.75-2.19,3.23-3.22,4.78s-2.6,4.42-1.7,6.48c.6,1.38,1,1.88,1.53,1.51,1-.72,2.16-8.59,12.2-13.89,2.23-1.17,3.86,3.53,3.68,6.42C155.3,63,149.11,65.66,147.62,66.47Zm5.86-10.21c.86-1.44,1.26-5.19-.58-4.81-2.14.42-8.06,10.17-8.09,11.06s3-.39,3.58-.66C149.27,61.43,151.12,60.16,153.48,56.26Z"/><path class="cls-3" d="M125.59,50.52a21.84,21.84,0,0,1-1.3,2.52c-.48,1,5.48.38,7.2.92.37.28.3,1.88.22,2.59-.11,1-8.08.48-8.65,1-.29.26-2.07,4.27-1.51,4.6.93.54,8.45-1.88,9.6-1.07,1.77,1.25,1.71,2.23.92,3s-10.72,6.16-13.39,3.44c-1.84-1.88-2.29-2.73-2.1-5.38s1.83-4.17,1.61-4.6a4.49,4.49,0,0,1-.11-3.35c.31-.61,1.49-.08,1.62-.3.52-1,1.17-3.27,1.63-4s-2.37-.54-2.79-1.09-1.87-2.43.25-2.45c5.24,0,12.06-1.32,13.85-.95,1.4.29,4.09,2.9,2.81,4C132.93,51.18,128.51,49.77,125.59,50.52Z"/><path class="cls-3" d="M113.41,63.61c-1.61,2.39-3.25,2.11-4.52,1.39-3.46-2-5.57-11.88-7.21-11.72-1,.1-.52,12-1.3,12.6s-1.29,1.6-3,.09c-.68-.62-.24-6.22-.24-6.22.3-4.54.81-12.27,3-13.38,1.81-.91,4,3.28,5.09,4.72s4.08,8.18,5,8,.1-5.89,0-7.21c-.46-5.21-3.38-9.43-2.08-10.38,1-.71,4.93,3.51,5.88,7.33C114.61,51.14,117,58.19,113.41,63.61Z"/><path class="cls-3" d="M92.91,48.46c-5.53.09-13.93.71-14.9,1.34s-.91.84,1,1.46c3.2,1.06,13.32-.21,15.95,5A9.2,9.2,0,0,1,94.38,63c-1.32,2.43-7.16,3.82-11.26,3.41-2.87-.28-8.71-2-8.93-6.47.14-1.79.54-3.17,3.7-4.09,3.58-1,11.2,1.15,11.64,2.52.28.89-4.15,2.28-6.26,1.65-1.72-.53-5.14-3.7-6.93-.7-.42,1.28.59,1.86,1.54,2.18,5.5,1.29,13.28-.35,14.15-2.4s-2.28-2.72-3.89-3.39c-4.68-1.93-11.09-.24-14-2.33-1.63-2-.6-3.89,0-5.09,2.59-4.11,12.3-3.8,14.77-3.72,2.19.08,6.72.2,7,1.24C96.4,47.87,94.07,48.13,92.91,48.46Z"/><path class="cls-3" d="M69.69,66.34c-.85.41-3.52-.3-3.26-1.4-.69-6.6.07-13.87.85-19.43.4-1.16,2.45-2.15,3.25,2a162.56,162.56,0,0,1,.52,16.89A2.23,2.23,0,0,1,69.69,66.34Z"/><path class="cls-3" d="M78.52,27c.3.2,3-.83,4.54,2.41,1.42,2.93-3.92,7.56-8.18,9.73a12.89,12.89,0,0,1-8.85.64c-1.25.55-1.09,2.49-2.75,1.71-.27-.33-1-2.31-.16-3.37-2-1.62-1.88-4.77-1.06-6.68a15.31,15.31,0,0,1,10.59-7.17C75.93,23.74,78,24.7,78.52,27Zm.27,6.76c1.26-1.17,2.33-3.18.72-4.21-3.81-2.43-8.84,4.06-12,7.16,2.58,1.29,7.26-.39,7.92-.77A15,15,0,0,0,78.79,33.74Zm-7.86-5c-.88-1.4-5,1.83-6.31,3.41s-.65,2.47-.1,3A28.77,28.77,0,0,1,70.93,28.71Z"/><path class="cls-3" d="M221.56,69.32a13.8,13.8,0,0,0,9.14-2.7c5.49-5,4.34-9.51,2.89-12-4.49-7.67-15.4-9.27-18.66-8s-3.29,2.39-3.16,3.24c.19,1.3,1.25,1.55,1.58,1.28s.39-.3.21-.92.64-1.22,1.54-1.33c3.67-.49,8.2,2.51,9.45,3.41,5.27,3.84,6.31,8.92,5.53,10.56s-5.35,2.19-9.05,1.31c0,0-.2-4.41.08-10.36,0-.83-.6-1.52-1.78-1.19-2,.57-2.69,8.64-2.71,9,0,.55-1.08-.87-1.52-1.43a1.13,1.13,0,0,0-1.85.37c-.12.32-1.36,3.23.86,5.43a11.84,11.84,0,0,0,2.39,1.67c.31,1.78.92,3.76,2.62,3.53C220.51,71.05,221.07,71.4,221.56,69.32Z"/><path class="cls-3" d="M24.11,61.78c-7.53-2.93-12.78-7.19-12.78-9.69,0-1.77,6.71-2.41,13.05-2.62C24.24,53.42,24.1,58,24.11,61.78Zm5.93,6a33.31,33.31,0,0,0,10,1.77c11.6,0,23.75-6.82,23.75-17.54,0-14.33-25.6-32.62-49.07-32.62-6.83,0-10.58,1-11.85,1.77C1.83,21.79,0,23.76,0,24.58c0,1.85,2.12,1.91,3.07,1.91s2.19-.2,2.19-1a.91.91,0,0,0-.89-.89c-.41,0-2.18.62-2.18-.4,0-.83,5.18-1.37,9.62-1.37,25.73,0,46.07,18,46.07,29.28C57.88,58.84,52,65,40.54,65A44,44,0,0,1,30,63.65c-.08-2.85-.19-8.91-.23-14.28h2c4.78,0,13.11,1.36,13.11,3s-2,2.36-2.77,2.7c-.55.24,0,.61.44.82a3.39,3.39,0,0,0,1.64.37c1.85,0,4.91-2,4.91-4.5,0-3.62-5.25-7.58-16.1-7.58-.85,0-2,0-3.24.16,0-2.24,0-4,.1-4.73a10.07,10.07,0,0,0-1.71-6c-.75-.89-1.63-1-2.11.41a39.81,39.81,0,0,0-1.23,6.49c0,.31-.12,2-.22,4.47-7,1.09-15.07,3.39-15.07,7.2,0,4.09,6.68,9.61,14.69,13.33,0,.77.07,1.45.12,2,.14,1.43.27,3.68,3.14,3.68C29.27,71.2,29.88,69.67,30,67.79Z"/><path class="cls-3" d="M157.13,75.13a5.49,5.49,0,0,1,2.41.36,2.38,2.38,0,0,1,.1,4.53,5.11,5.11,0,0,1-2.61.41h-1.64V84h-2.8V75.13Zm-1.74,3.68h.91c1.54,0,2.08-.26,2.08-1s-.55-1-2-1h-1Z"/><path class="cls-3" d="M182,84h-3l-.91-1.76h-4.95L172.32,84h-2.93l4.47-8.87h3.2Zm-8.1-3.31h3.41l-1.79-3.43Z"/><path class="cls-3" d="M196.19,75.13a5.67,5.67,0,0,1,2.9.45,2.48,2.48,0,0,1,1.45,2.1,2.11,2.11,0,0,1-.94,1.7,4.08,4.08,0,0,1-1,.47,3.37,3.37,0,0,1,1.59,1.66l.44.75.29.5.34.6.3.49.08.15h-3l-.07-.1-.21-.36-.21-.41-.32-.57-.42-.75a2.6,2.6,0,0,0-1.48-1.38,3.15,3.15,0,0,0-.8-.05h-.4V84h-2.8V75.13Zm-1.46,3.64h1.36l.34,0c.73,0,1.23-.41,1.23-1s-.52-1-1.54-1h-1.39Z"/><path class="cls-3" d="M215.87,84h-2.8V75.13h2.8Z"/><path class="cls-3" d="M234.87,77.52l-.2-.07a9,9,0,0,0-3.37-.79c-1,0-1.66.29-1.66.72s.57.7,1.8,1.05l.88.26c2.13.61,3.05,1.46,3.05,2.8,0,1.57-1.74,2.62-4.34,2.62a9.55,9.55,0,0,1-2.92-.48,4.29,4.29,0,0,1-1-.38V81.34a11.45,11.45,0,0,0,1.78.77,6.48,6.48,0,0,0,2,.34c1.09,0,1.68-.28,1.68-.81s-.38-.69-1.5-1l-.6-.17a11.17,11.17,0,0,1-1.84-.64,3.77,3.77,0,0,1-1-.65,2.25,2.25,0,0,1-.72-1.64c0-1.53,1.65-2.53,4.19-2.53a10.84,10.84,0,0,1,3.75.69Z"/></g></svg>