<?xml version="1.0" encoding="utf-8"?>
<!-- Generator: Adobe Illustrator 21.1.0, SVG Export Plug-In . SVG Version: 6.00 Build 0)  -->
<svg version="1.0" id="Layer_1" xmlns="http://www.w3.org/2000/svg" xmlns:xlink="http://www.w3.org/1999/xlink" x="0px" y="0px"
	 width="28px" height="28px" viewBox="0 0 28 28" enable-background="new 0 0 28 28" xml:space="preserve">
<g id="_x2D_---------Symbols">
	<g id="ICO-_x2F_-GENERIC-_x2F_-FEED">
		<g id="ICO-_x2F_-FEED">
		</g>
	</g>
</g>
<g>
	<path id="path-1" fill="#253B56" d="M15.8,18.9c0,1-0.8,1.8-1.8,1.8s-1.8-0.8-1.8-1.8v-4.1c0-1,0.8-1.8,1.8-1.8s1.8,0.8,1.8,1.8
		V18.9z M14,11.4c-1.1,0-1.9-0.9-1.9-1.9c0-1.1,0.9-1.9,1.9-1.9c1.1,0,1.9,0.9,1.9,1.9C15.9,10.6,15.1,11.4,14,11.4z M14,2
		C7.4,2,2,7.4,2,14s5.4,12,12,12s12-5.4,12-12S20.6,2,14,2z M14,4.4c5.3,0,9.6,4.3,9.6,9.6c0,5.3-4.3,9.6-9.6,9.6
		c-5.3,0-9.6-4.3-9.6-9.6C4.4,8.7,8.7,4.4,14,4.4z"/>
</g>
<g id="_x2D_---------Symbols_1_">
	<g id="ICO-_x2F_-INTERACTIVE-_x2F_-INFORMATION">
		<g id="ICO-_x2F_-INFORMATION">
		</g>
	</g>
</g>
</svg>
